<mxfile host="app.diagrams.net" modified="2022-03-31T23:12:48.238Z" agent="5.0 (Windows NT 10.0; Win64; x64) AppleWebKit/537.36 (KHTML, like Gecko) Chrome/99.0.4844.84 Safari/537.36" etag="BBT76e9hgbVtVgaNekFA" version="17.4.0" type="github">
  <diagram id="7rsKthOdtt6Xz7FYnK8A" name="Page-1">
    <mxGraphModel dx="782" dy="379" grid="0" gridSize="10" guides="1" tooltips="1" connect="1" arrows="1" fold="1" page="1" pageScale="1" pageWidth="850" pageHeight="1100" background="#ffffff" math="0" shadow="0">
      <root>
        <mxCell id="0" />
        <mxCell id="1" parent="0" />
        <mxCell id="oQya9G0x4X-i0jd7vOcW-1" value="Hybris" style="whiteSpace=wrap;html=1;aspect=fixed;" vertex="1" parent="1">
          <mxGeometry x="35" y="95" width="105" height="105" as="geometry" />
        </mxCell>
        <mxCell id="oQya9G0x4X-i0jd7vOcW-2" value="DB2" style="shape=cylinder3;whiteSpace=wrap;html=1;boundedLbl=1;backgroundOutline=1;size=15;" vertex="1" parent="1">
          <mxGeometry x="273" y="499" width="60" height="80" as="geometry" />
        </mxCell>
        <mxCell id="oQya9G0x4X-i0jd7vOcW-3" value="QuninStreet&lt;br&gt;Back end" style="whiteSpace=wrap;html=1;aspect=fixed;" vertex="1" parent="1">
          <mxGeometry x="233" y="296" width="134" height="134" as="geometry" />
        </mxCell>
        <mxCell id="oQya9G0x4X-i0jd7vOcW-4" value="Mulesoft" style="whiteSpace=wrap;html=1;aspect=fixed;" vertex="1" parent="1">
          <mxGeometry x="246" y="96" width="103" height="103" as="geometry" />
        </mxCell>
        <mxCell id="oQya9G0x4X-i0jd7vOcW-5" value="LX" style="whiteSpace=wrap;html=1;aspect=fixed;" vertex="1" parent="1">
          <mxGeometry x="472.5" y="93" width="107" height="107" as="geometry" />
        </mxCell>
        <mxCell id="oQya9G0x4X-i0jd7vOcW-6" value="" style="shape=flexArrow;endArrow=classic;html=1;rounded=0;" edge="1" parent="1">
          <mxGeometry width="50" height="50" relative="1" as="geometry">
            <mxPoint x="148" y="160" as="sourcePoint" />
            <mxPoint x="243" y="160" as="targetPoint" />
          </mxGeometry>
        </mxCell>
        <mxCell id="oQya9G0x4X-i0jd7vOcW-7" value="" style="shape=flexArrow;endArrow=classic;html=1;rounded=0;" edge="1" parent="1">
          <mxGeometry width="50" height="50" relative="1" as="geometry">
            <mxPoint x="359" y="160" as="sourcePoint" />
            <mxPoint x="470" y="160" as="targetPoint" />
          </mxGeometry>
        </mxCell>
        <mxCell id="oQya9G0x4X-i0jd7vOcW-8" value="" style="shape=flexArrow;endArrow=classic;html=1;rounded=0;" edge="1" parent="1">
          <mxGeometry width="50" height="50" relative="1" as="geometry">
            <mxPoint x="295" y="208" as="sourcePoint" />
            <mxPoint x="295" y="288" as="targetPoint" />
          </mxGeometry>
        </mxCell>
        <mxCell id="oQya9G0x4X-i0jd7vOcW-9" value="" style="shape=flexArrow;endArrow=classic;html=1;rounded=0;entryX=0.5;entryY=0;entryDx=0;entryDy=0;entryPerimeter=0;" edge="1" parent="1" target="oQya9G0x4X-i0jd7vOcW-2">
          <mxGeometry width="50" height="50" relative="1" as="geometry">
            <mxPoint x="303" y="443" as="sourcePoint" />
            <mxPoint x="299.5" y="400" as="targetPoint" />
          </mxGeometry>
        </mxCell>
        <mxCell id="oQya9G0x4X-i0jd7vOcW-10" value="Shaklee Web" style="whiteSpace=wrap;html=1;aspect=fixed;" vertex="1" parent="1">
          <mxGeometry x="480" y="270" width="80" height="80" as="geometry" />
        </mxCell>
        <mxCell id="oQya9G0x4X-i0jd7vOcW-11" value="" style="shape=flexArrow;endArrow=classic;html=1;rounded=0;" edge="1" parent="1">
          <mxGeometry width="50" height="50" relative="1" as="geometry">
            <mxPoint x="472" y="310" as="sourcePoint" />
            <mxPoint x="371" y="310" as="targetPoint" />
          </mxGeometry>
        </mxCell>
        <mxCell id="oQya9G0x4X-i0jd7vOcW-12" value="QuninStreet&lt;br&gt;GUI" style="whiteSpace=wrap;html=1;aspect=fixed;" vertex="1" parent="1">
          <mxGeometry x="39" y="280" width="101" height="101" as="geometry" />
        </mxCell>
        <mxCell id="oQya9G0x4X-i0jd7vOcW-13" value="" style="shape=flexArrow;endArrow=classic;html=1;rounded=0;" edge="1" parent="1">
          <mxGeometry width="50" height="50" relative="1" as="geometry">
            <mxPoint x="142" y="308" as="sourcePoint" />
            <mxPoint x="231" y="308.5" as="targetPoint" />
          </mxGeometry>
        </mxCell>
        <mxCell id="oQya9G0x4X-i0jd7vOcW-14" value="Uses Spring based &lt;br&gt;REST endpoints" style="text;html=1;align=center;verticalAlign=middle;resizable=0;points=[];autosize=1;strokeColor=none;fillColor=none;" vertex="1" parent="1">
          <mxGeometry x="314" y="208" width="111" height="32" as="geometry" />
        </mxCell>
        <mxCell id="oQya9G0x4X-i0jd7vOcW-15" value="Uses &lt;br&gt;Struts based API" style="text;html=1;align=center;verticalAlign=middle;resizable=0;points=[];autosize=1;strokeColor=none;fillColor=none;" vertex="1" parent="1">
          <mxGeometry x="142" y="255" width="99" height="32" as="geometry" />
        </mxCell>
        <mxCell id="oQya9G0x4X-i0jd7vOcW-16" value="Uses &lt;br&gt;Struts based API" style="text;html=1;align=center;verticalAlign=middle;resizable=0;points=[];autosize=1;strokeColor=none;fillColor=none;" vertex="1" parent="1">
          <mxGeometry x="381" y="260" width="99" height="32" as="geometry" />
        </mxCell>
        <mxCell id="oQya9G0x4X-i0jd7vOcW-17" value="Legacy System" style="whiteSpace=wrap;html=1;aspect=fixed;" vertex="1" parent="1">
          <mxGeometry x="480" y="376" width="80" height="80" as="geometry" />
        </mxCell>
        <mxCell id="oQya9G0x4X-i0jd7vOcW-21" value="" style="shape=flexArrow;endArrow=classic;html=1;rounded=0;" edge="1" parent="1">
          <mxGeometry width="50" height="50" relative="1" as="geometry">
            <mxPoint x="469" y="402" as="sourcePoint" />
            <mxPoint x="368" y="402" as="targetPoint" />
          </mxGeometry>
        </mxCell>
        <mxCell id="oQya9G0x4X-i0jd7vOcW-22" value="Nightly &lt;br&gt;Batch Jobs" style="text;html=1;align=center;verticalAlign=middle;resizable=0;points=[];autosize=1;strokeColor=none;fillColor=none;" vertex="1" parent="1">
          <mxGeometry x="384" y="416" width="69" height="32" as="geometry" />
        </mxCell>
      </root>
    </mxGraphModel>
  </diagram>
</mxfile>
